<?xml version="1.0" standalone="no"?><!DOCTYPE svg PUBLIC "-//W3C//DTD SVG 1.1//EN" "http://www.w3.org/Graphics/SVG/1.1/DTD/svg11.dtd"><svg t="1750684248897" class="icon" viewBox="0 0 1024 1024" version="1.1" xmlns="http://www.w3.org/2000/svg" p-id="2523" xmlns:xlink="http://www.w3.org/1999/xlink" width="200" height="200"><path d="M587.85185173 587.85185173v121.3629632a121.3629632 121.3629632 0 1 0 121.3629632-121.3629632h-121.3629632zM542.34074027 542.34074027h166.87407466a166.8740736 166.8740736 0 1 1-166.87407466 166.87407466V542.34074027z m-106.192592 45.51111146h-121.3629632a121.3629632 121.3629632 0 1 0 121.3629632 121.3629632v-121.3629632z m45.51111146 121.3629632a166.8740736 166.8740736 0 1 1-166.87407466-166.87407466H481.65925973v166.87407466z m-45.51111146-273.06666666v-121.3629632a121.3629632 121.3629632 0 1 0-121.3629632 121.3629632h121.3629632z m45.51111146-121.3629632V481.65925973h-166.87407466a166.8740736 166.8740736 0 1 1 166.87407466-166.87407466z m106.192592 121.3629632h121.3629632a121.3629632 121.3629632 0 1 0-121.3629632-121.3629632v121.3629632z m-45.51111146-121.3629632a166.8740736 166.8740736 0 1 1 166.87407466 166.87407466H542.34074027v-166.87407466z" fill="#1296db" p-id="2524"></path></svg>