<?xml version="1.0" standalone="no"?><!DOCTYPE svg PUBLIC "-//W3C//DTD SVG 1.1//EN" "http://www.w3.org/Graphics/SVG/1.1/DTD/svg11.dtd"><svg t="1750686393280" class="icon" viewBox="0 0 1025 1024" version="1.1" xmlns="http://www.w3.org/2000/svg" p-id="12686" xmlns:xlink="http://www.w3.org/1999/xlink" width="200.1953125" height="200"><path d="M206.941091 615.959273c24.250182-20.922182 36.375273-48.290909 36.375273-82.082909 0-27.20581801-8.005818-49.268364-23.970909-66.28072799-15.988364-16.989091-37.306182-27.042909-63.930182-30.16145401l0-1.093818c21.317818-6.981818 38.027636-18.734545 50.152727-35.281455 12.12509099-16.523636 18.176-35.97963601 18.176-58.414545 0-26.810182-10.007273-48.57018201-30.045091-65.30327299S146.618182 252.276364 112.453818 252.276364L0.023273 252.276364l0 395.101091 115.176727 1e-8c36.910545-0.023273 67.490909-10.472727 91.741091-31.41818201zM46.312727 294.144l53.178182 0c50.501818 0 75.752727 19.19999999 75.752727 57.576727 0 22.24872699-7.261091 39.447273-21.76 51.665455s-34.443636 18.315636-59.787636 18.315636L46.312727 421.701818l0-127.557818z m0 169.169455l53.178182 0c63.534545 0 95.325091 23.342545 95.325091 69.98109 0 22.411636-7.493818 40.052364-22.458182 52.89891-14.987636 12.869818-36.04945499 19.293091-63.232 19.29309L46.312727 605.486545l0-142.17309zM317.44 251.461818l45.172364 0-1e-8 395.892364-45.17236399 0L317.44 251.461818zM674.373818 607.301818c25.437091-27.089455 38.167273-63.138909 38.167273-108.125091 0-45.94036399-11.822545-81.85018199-35.397818-107.729454-23.621818-25.902545-56.436364-38.842182-98.490182-38.842182-44.101818 0-79.080727 13.312-104.98327301 39.959273s-38.842182 63.650909-38.84218199 111.034181c0 43.52 12.427636 78.475636 37.329455 104.820364 24.878545 26.368 58.18181799 39.540364 99.886545 39.540364 42.775273-0.023273 76.893091-13.568 102.330182-40.657455z m-193.28-105.402182c0-34.72290901 8.448-61.952 25.34399999-81.687272 16.896-19.758545 39.842909-29.626182 68.88727301-29.626182 29.207273 0 51.66545499 9.565091 67.351273 28.648727 15.732364 19.106909 23.575273 46.289455 23.575272 81.547636 0 34.909091-7.842909 61.812364-23.575272 80.733091-15.685818 18.920727-38.144 28.392727-67.351273 28.39272799-28.672 0-51.549091-9.634909-68.608-28.92799999-17.082182-19.29309101-25.623273-45.637818-25.623273-79.080728z" fill="#5D87FF" p-id="12687"></path><path d="M1025.512727 618.728727L1025.512727 359.191273l-45.172363 0 0 39.121454-1.093819 0c-18.385455-30.487273-46.568727-45.730909-84.596363-45.730909-40.052364 0-71.586909 14.149818-94.626909 42.426182-23.063273 28.276364-34.583273 66.397091-34.583273 114.338909 0 42.24 10.705455 75.915636 32.093091 100.98036399 21.410909 25.088 49.664 37.608727 84.736 37.60872701 43.17090899 0 75.496727-17.989818 97.000727-53.992727l1.093818 0 0 30.859636c0 28.92800001-5.329455 52.17745501-16.011636 69.771636l-22.830545 24.15709101-0.977455 0.67490899c-7.144727 4.398545-57.716364 32.721455-130.117818-0.558545-78.219636-36.002909-189.533091-38.958545-216.948364 55.296l32.279273 24.855273s0-44.35781801 49.989818-62.114909c37.143273-13.17236399 77.568 3.467636 109.568 17.198545l0 0.186182c9.192727 4.654545 18.920727 8.494545 29.207273 11.496727l0.488727 0.162909a225.047273 225.047273 0 0 0 61.765818 8.215273c99.141818 0 148.736-51.828364 148.736-155.415273z m-69.003636-35.816727c-15.91854501 17.989818-36.514909 26.996364-61.858909 26.99636399-24.971636 0-45.056-9.402182-60.206546-28.25309099-15.150545-18.827636-22.737455-43.938909-22.737454-75.357091 0-36.53818199 7.889455-64.954182 23.69163599-85.248s37.655273-30.464 65.58254601-30.464c22.597818 0 41.448727 7.982545 56.622545 23.970909 15.150545 15.988364 22.737455 35.165091 22.737455 57.576727l0 41.611637c0 28.090182-7.959273 51.153455-23.831273 69.166545z" fill="#5D87FF" p-id="12688"></path></svg>