<?xml version="1.0" standalone="no"?><!DOCTYPE svg PUBLIC "-//W3C//DTD SVG 1.1//EN" "http://www.w3.org/Graphics/SVG/1.1/DTD/svg11.dtd"><svg t="1750686464571" class="icon" viewBox="0 0 1024 1024" version="1.1" xmlns="http://www.w3.org/2000/svg" p-id="15855" xmlns:xlink="http://www.w3.org/1999/xlink" width="200" height="200"><path d="M242.4 237.8h659.5v408H242.4z" fill="#E9EFFF" p-id="15856"></path><path d="M921.8 177.8H182.4v80h-80.2v488h109v100.4l131.7-100.4h499.3v-80h79.7v-488z m-119.6 528H329.4l-78.2 59.6v-59.6h-109v-408h40.2v368h619.8v40z m79.6-80H222.4v-408h659.5v408z" fill="#3366FF" p-id="15857"></path><path d="M361.9 481.8c-33.1 0-60-26.9-60-60s26.9-60 60-60 60 26.9 60 60-27 60-60 60z m0-80c-11 0-20 9-20 20s9 20 20 20 20-9 20-20-9-20-20-20zM552.1 481.8c-33.1 0-60-26.9-60-60s26.9-60 60-60 60 26.9 60 60-26.9 60-60 60z m0-80c-11 0-20 9-20 20s9 20 20 20 20-9 20-20-9-20-20-20zM742.3 481.8c-33.1 0-60-26.9-60-60s26.9-60 60-60 60 26.9 60 60-26.9 60-60 60z m0-80c-11 0-20 9-20 20s9 20 20 20 20-9 20-20-8.9-20-20-20z" fill="#3366FF" p-id="15858"></path></svg>