<?xml version="1.0" standalone="no"?><!DOCTYPE svg PUBLIC "-//W3C//DTD SVG 1.1//EN" "http://www.w3.org/Graphics/SVG/1.1/DTD/svg11.dtd"><svg t="1750686419048" class="icon" viewBox="0 0 1024 1024" version="1.1" xmlns="http://www.w3.org/2000/svg" p-id="13693" xmlns:xlink="http://www.w3.org/1999/xlink" width="200" height="200"><path d="M209.7 414.1l202.4 53.8c2 0.5 4.1 0.8 6.3 0.8 11 0 20.6-7.4 23.4-18 3.4-12.9-4.3-26.2-17.2-29.6l-202.4-53.8c-6.2-1.7-12.7-0.9-18.3 2.3-5.7 3.2-9.7 8.5-11.4 14.8-3.4 13 4.3 26.3 17.2 29.7zM424.7 606.3l-202.4-53.8c-6.2-1.7-12.7-0.8-18.4 2.4-5.6 3.3-9.7 8.5-11.3 14.8-3.4 12.9 4.3 26.2 17.2 29.6l202.4 53.8c2 0.5 4.1 0.8 6.3 0.8 11 0 20.6-7.4 23.4-18 3.4-12.8-4.3-26.1-17.2-29.6zM607.9 468.7c2.2 0 4.3-0.3 6.2-0.8l202.5-53.8c12.9-3.4 20.6-16.7 17.2-29.7-1.7-6.3-5.8-11.6-11.5-14.9-5.6-3.2-12.1-4-18.2-2.3L601.6 421c-12.9 3.4-20.6 16.7-17.2 29.7 2.9 10.6 12.5 18 23.5 18zM833.8 569.7c-1.7-6.3-5.7-11.6-11.4-14.8-5.6-3.2-12.1-4.1-18.3-2.4l-202.5 53.8c-12.9 3.4-20.6 16.7-17.2 29.6 2.8 10.6 12.4 18 23.4 18 2.2 0 4.3-0.3 6.2-0.8l202.5-53.8c13-3.4 20.7-16.7 17.3-29.6z" fill="#FF4E7D" p-id="13694"></path><path d="M891.3 166.2c-6.8-5.3-18.6-10.7-36.3-6.4L518.7 244h-0.1c-0.4 0.1-0.8 0.1-1.1 0L171 159.8c-17.6-4.4-29.4 1-36.2 6.4-7.5 5.8-16.3 17.4-16.3 39.7l0.6 342.4 0.2 186.1c0 14.2 5.8 25.8 17.2 34.6 8.5 6.6 18 9.6 22.5 11.1l340 98.4c4.6 1.3 9.4 2 14.1 2 4.7 0 9.5-0.7 14.2-2l340.1-98.4 0.2-0.1c4.4-1.4 13.7-4.4 22.2-11 11.4-8.8 17.1-20.4 17.1-34.5l0.8-528.5c-0.1-22.4-9-34-16.4-39.8zM488.8 825l-315.5-91.3c-2.7-0.9-4.5-1.6-5.6-2.1l-0.2-183.2-0.6-339.6L488.8 287v538z m369.5-93.4c-1 0.5-2.7 1.2-5.2 2L537.2 825V289.3l321.9-80.6-0.8 522.9z" fill="#4E30DC" p-id="13695"></path></svg>