<?xml version="1.0" standalone="no"?><!DOCTYPE svg PUBLIC "-//W3C//DTD SVG 1.1//EN" "http://www.w3.org/Graphics/SVG/1.1/DTD/svg11.dtd"><svg t="1750686262237" class="icon" viewBox="0 0 1024 1024" version="1.1" xmlns="http://www.w3.org/2000/svg" p-id="4741" xmlns:xlink="http://www.w3.org/1999/xlink" width="200" height="200"><path d="M128 390h768v150.027L886 960H138l-10-419.691V390z" fill="#233991" p-id="4742"></path><path d="M90.673 245.512L832.5 46.739l38.823 144.889L129.5 390.4z" fill="#324BB1" p-id="4743"></path><path d="M157.272 228.154l123.639-33.128-28.792 163.006-123.638 33.129zM404.549 161.9l123.639-33.129L499.4 291.774 375.758 324.9z m247.277-66.261L775.465 62.51l-28.792 163.006-123.638 33.129z" fill="#FFFFFF" p-id="4744"></path><path d="M280.911 195.026L404.549 161.9l-28.791 163-123.639 33.132z m247.277-66.258l123.638-33.129-28.791 163.006L499.4 291.774z" fill="#324BB1" p-id="4745"></path><path d="M128 390h768v150H128z" fill="#324BB1" p-id="4746"></path><path d="M768 390H640l70 150h128z m-256 0H384l70 150h128z m-256 0H128l70 150h128z" fill="#FFFFFF" p-id="4747"></path><path d="M640 390H512l70 150h128z m-256 0H256l70 150h128z" fill="#324BB1" p-id="4748"></path><path d="M149 295h110l80 92.641V485H149V295z" fill="#FFD7DC" p-id="4749"></path><path d="M187 433a16 16 0 1 1-16 16 16 16 0 0 1 16-16z m0-118a16 16 0 1 1-16 16 16 16 0 0 1 16-16z m117 118a16 16 0 1 1-16 16 16 16 0 0 1 16-16z" fill="#DA384E" p-id="4750"></path><path d="M207 660h216l10 32H207v-32z m0 117h616l-20 32H207v-32z" fill="#FFD7DC" p-id="4751"></path></svg>